<svg width="1245" height="264" viewBox="0 0 1245 264" fill="none" xmlns="http://www.w3.org/2000/svg">
<circle cx="216" cy="181" r="5" fill="white" fill-opacity="0.18"/>
<circle cx="616" cy="204" r="5" fill="white" fill-opacity="0.18"/>
<circle cx="1065" cy="163" r="5" fill="white" fill-opacity="0.18"/>
<circle cx="1026" cy="259" r="5" fill="white" fill-opacity="0.18"/>
<circle cx="429" cy="88" r="5" fill="white" fill-opacity="0.18"/>
<circle cx="941" cy="118" r="5" fill="white" fill-opacity="0.18"/>
<circle cx="1239" cy="166" r="5" fill="white" fill-opacity="0.18"/>
<circle cx="251" cy="103" r="3" fill="white" fill-opacity="0.18"/>
<circle cx="651" cy="126" r="3" fill="white" fill-opacity="0.18"/>
<circle cx="1100" cy="85" r="3" fill="white" fill-opacity="0.18"/>
<circle cx="1061" cy="181" r="3" fill="white" fill-opacity="0.18"/>
<circle cx="203" cy="8" r="3" fill="white" fill-opacity="0.18"/>
<circle cx="603" cy="31" r="3" fill="white" fill-opacity="0.18"/>
<circle cx="1060" cy="3" r="3" fill="white" fill-opacity="0.18"/>
<circle cx="1013" cy="86" r="3" fill="white" fill-opacity="0.18"/>
<ellipse cx="320.5" cy="35" rx="3.5" ry="3" fill="white" fill-opacity="0.18"/>
<ellipse cx="1183.5" cy="69" rx="3.5" ry="3" fill="white" fill-opacity="0.18"/>
<ellipse cx="1169.5" cy="17" rx="3.5" ry="3" fill="white" fill-opacity="0.18"/>
<ellipse cx="1130.5" cy="113" rx="3.5" ry="3" fill="white" fill-opacity="0.18"/>
<ellipse cx="32.5" cy="110" rx="4.5" ry="5" fill="white" fill-opacity="0.18"/>
<ellipse cx="432.5" cy="133" rx="4.5" ry="5" fill="white" fill-opacity="0.18"/>
<ellipse cx="881.5" cy="92" rx="4.5" ry="5" fill="white" fill-opacity="0.18"/>
<ellipse cx="842.5" cy="188" rx="4.5" ry="5" fill="white" fill-opacity="0.18"/>
<circle cx="4.5" cy="9.5" r="4.5" fill="white" fill-opacity="0.18"/>
<circle cx="404.5" cy="32.5" r="4.5" fill="white" fill-opacity="0.18"/>
<circle cx="863.5" cy="4.5" r="4.5" fill="white" fill-opacity="0.18"/>
<circle cx="767.5" cy="28.5" r="4.5" fill="white" fill-opacity="0.18"/>
</svg>
