<svg width="90" height="113" viewBox="0 0 90 113" fill="none" xmlns="http://www.w3.org/2000/svg">
<path d="M16.875 0H73.125C77.6005 0 81.8928 1.77438 85.0574 4.93279C88.2221 8.0912 90 12.3749 90 16.8416V95.4356C90 99.9023 88.2221 104.186 85.0574 107.344C81.8928 110.503 77.6005 112.277 73.125 112.277H16.875C12.3995 112.277 8.10725 110.503 4.94257 107.344C1.7779 104.186 0 99.9023 0 95.4356L0 16.8416C0 12.3749 1.7779 8.0912 4.94257 4.93279C8.10725 1.77438 12.3995 0 16.875 0ZM16.875 11.2277C15.3832 11.2277 13.9524 11.8192 12.8975 12.872C11.8426 13.9248 11.25 15.3527 11.25 16.8416V95.4356C11.25 96.9245 11.8426 98.3524 12.8975 99.4053C13.9524 100.458 15.3832 101.05 16.875 101.05H73.125C74.6168 101.05 76.0476 100.458 77.1025 99.4053C78.1574 98.3524 78.75 96.9245 78.75 95.4356V16.8416C78.75 15.3527 78.1574 13.9248 77.1025 12.872C76.0476 11.8192 74.6168 11.2277 73.125 11.2277H16.875ZM28.125 16.8416H61.875C63.3668 16.8416 64.7976 17.433 65.8525 18.4858C66.9074 19.5386 67.5 20.9666 67.5 22.4554C67.5 23.9443 66.9074 25.3722 65.8525 26.425C64.7976 27.4778 63.3668 28.0693 61.875 28.0693H28.125C26.6332 28.0693 25.2024 27.4778 24.1475 26.425C23.0926 25.3722 22.5 23.9443 22.5 22.4554C22.5 20.9666 23.0926 19.5386 24.1475 18.4858C25.2024 17.433 26.6332 16.8416 28.125 16.8416ZM28.125 84.2079H39.375C40.8668 84.2079 42.2976 84.7994 43.3525 85.8522C44.4074 86.905 45 88.3329 45 89.8218C45 91.3107 44.4074 92.7386 43.3525 93.7914C42.2976 94.8442 40.8668 95.4356 39.375 95.4356H28.125C26.6332 95.4356 25.2024 94.8442 24.1475 93.7914C23.0926 92.7386 22.5 91.3107 22.5 89.8218C22.5 88.3329 23.0926 86.905 24.1475 85.8522C25.2024 84.7994 26.6332 84.2079 28.125 84.2079ZM28.125 61.7525H61.875C63.3668 61.7525 64.7976 62.3439 65.8525 63.3967C66.9074 64.4495 67.5 65.8775 67.5 67.3663C67.5 68.8552 66.9074 70.2831 65.8525 71.3359C64.7976 72.3887 63.3668 72.9802 61.875 72.9802H28.125C26.6332 72.9802 25.2024 72.3887 24.1475 71.3359C23.0926 70.2831 22.5 68.8552 22.5 67.3663C22.5 65.8775 23.0926 64.4495 24.1475 63.3967C25.2024 62.3439 26.6332 61.7525 28.125 61.7525ZM28.125 39.297H61.875C63.3668 39.297 64.7976 39.8885 65.8525 40.9413C66.9074 41.9941 67.5 43.422 67.5 44.9109C67.5 46.3998 66.9074 47.8277 65.8525 48.8805C64.7976 49.9333 63.3668 50.5248 61.875 50.5248H28.125C26.6332 50.5248 25.2024 49.9333 24.1475 48.8805C23.0926 47.8277 22.5 46.3998 22.5 44.9109C22.5 43.422 23.0926 41.9941 24.1475 40.9413C25.2024 39.8885 26.6332 39.297 28.125 39.297Z" fill="white"/>
</svg>
