<svg width="139" height="139" viewBox="0 0 139 139" fill="none" xmlns="http://www.w3.org/2000/svg">
<path d="M69.5 0C31.1189 0 0 31.1301 0 69.5C0 107.892 31.1189 139 69.5 139C107.881 139 139 107.892 139 69.5C139 31.1301 107.881 0 69.5 0ZM69.5 125.548C38.5243 125.548 13.4516 100.486 13.4516 69.5C13.4516 38.5347 38.5254 13.4516 69.5 13.4516C100.464 13.4516 125.548 38.5251 125.548 69.5C125.548 100.475 100.486 125.548 69.5 125.548ZM99.5543 54.0306C99.5543 72.8214 79.2589 73.1106 79.2589 80.0547V81.8306C79.2589 83.6878 77.7531 85.1936 75.896 85.1936H63.1038C61.2466 85.1936 59.7409 83.6878 59.7409 81.8306V79.404C59.7409 69.3868 67.3354 65.3824 73.0745 62.1647C77.9958 59.4057 81.0121 57.5292 81.0121 53.8754C81.0121 49.0423 74.847 45.8344 69.8629 45.8344C63.3644 45.8344 60.3644 48.9106 56.1473 54.233C55.0104 55.6678 52.9357 55.9343 51.4768 54.8282L43.6794 48.9157C42.2482 47.8306 41.9276 45.8145 42.9384 44.3301C49.5597 34.6074 57.9933 29.1452 71.1237 29.1452C84.8755 29.1452 99.5543 39.8796 99.5543 54.0306ZM81.2702 100.887C81.2702 107.377 75.9901 112.657 69.5 112.657C63.0099 112.657 57.7298 107.377 57.7298 100.887C57.7298 94.397 63.0099 89.1169 69.5 89.1169C75.9901 89.1169 81.2702 94.397 81.2702 100.887Z" fill="white"/>
</svg>
