<svg width="500" height="500" viewBox="0 0 500 500" fill="none" xmlns="http://www.w3.org/2000/svg">
<path d="M52.9293 237.07L54.8173 271.792C54.8843 273.029 55.9023 274 57.1413 274.009L119.622 274.467C120.917 274.477 121.974 273.435 121.983 272.14L122.181 245.112C122.19 243.811 121.14 242.752 119.839 242.751L81.4123 242.717C80.7913 242.716 80.1963 242.47 79.7573 242.031L73.1273 235.404C72.6923 234.969 72.1033 234.722 71.4873 234.718L55.2873 234.598C53.9363 234.589 52.8563 235.72 52.9293 237.07Z" fill="#EBEBEB"/>
<path d="M122.239 238.67L53.9688 238.172L53.6709 278.967L121.941 279.465L122.239 238.67Z" fill="#F5F5F5"/>
<path d="M48.5024 241.786L53.4034 284.365C53.4904 285.122 54.1284 285.694 54.8894 285.7L121.42 286.187C122.207 286.193 122.866 285.593 122.933 284.809L126.594 242.293C126.669 241.417 125.982 240.663 125.103 240.656L50.0104 240.106C49.1054 240.099 48.3984 240.886 48.5024 241.786Z" fill="#EBEBEB"/>
<path d="M336.597 243.066L338.222 272.964C338.28 274.029 339.156 274.865 340.223 274.873L394.023 275.267C395.138 275.275 396.048 274.378 396.056 273.263L396.226 249.99C396.234 248.87 395.329 247.958 394.209 247.957L361.121 247.928C360.586 247.927 360.074 247.715 359.696 247.337L353.987 241.631C353.612 241.256 353.105 241.044 352.575 241.04L338.627 240.938C337.464 240.929 336.534 241.904 336.597 243.066Z" fill="#EBEBEB"/>
<path d="M396.289 244.437L337.504 244.008L337.247 279.135L396.032 279.564L396.289 244.437Z" fill="#F5F5F5"/>
<path d="M332.786 247.126L337.006 283.789C337.081 284.441 337.63 284.934 338.286 284.939L395.574 285.359C396.251 285.364 396.819 284.847 396.877 284.172L400.03 247.563C400.095 246.809 399.503 246.159 398.746 246.154L334.086 245.68C333.306 245.674 332.697 246.352 332.786 247.126Z" fill="#EBEBEB"/>
<path d="M444.018 47.1406H348.41V205.4H444.018V47.1406Z" fill="#E0E0E0"/>
<path d="M440.838 47.1406H345.23V205.4H440.838V47.1406Z" fill="#EBEBEB"/>
<path d="M436.767 50.3516H349.301V202.192H436.767V50.3516Z" fill="white"/>
<path d="M419.737 70.082H365.953V182.461H419.737V70.082Z" fill="#EBEBEB"/>
<path d="M365.954 142.693C365.83 132.195 375.268 121.947 385.664 120.481C390.621 119.782 395.888 120.766 400.52 118.867C408.787 115.477 411.418 104.492 419.739 101.234L420.119 182.46H365.955V142.693H365.954Z" fill="#E0E0E0"/>
<path d="M438.49 249.901C438.49 249.901 430.571 249.331 431.3 267.095C432.029 284.859 433.841 294.321 433.841 294.321C433.841 294.321 433.608 298.26 430.558 297.487C427.507 296.714 421.769 292.881 418.935 295.746C415.996 298.718 417.041 303.276 420.94 308.645C424.839 314.014 432.949 326.09 433.679 327.184C434.395 328.259 434.682 330.274 432.52 330.08C430.357 329.886 415.762 324.939 413.829 332.006C411.896 339.072 425.216 352.244 426.644 353.712C428.072 355.18 428.149 356.107 427.57 356.995C426.99 357.883 422.241 355.758 418.032 354.521C413.823 353.284 408.726 352.588 407.952 356.758C407.179 360.928 413.045 373.133 435.015 385.96L445.584 391.237L455.588 384.856C476.164 369.896 480.781 357.166 479.594 353.094C478.407 349.022 473.405 350.225 469.341 351.876C465.277 353.528 460.764 356.117 460.099 355.292C459.434 354.466 459.418 353.537 460.692 351.933C461.967 350.33 473.902 335.891 471.272 329.054C468.642 322.216 454.614 328.599 452.482 329.008C450.349 329.417 450.434 327.383 451.039 326.242C451.655 325.08 458.517 312.253 461.859 306.521C465.201 300.789 465.785 296.15 462.563 293.487C459.456 290.919 454.13 295.307 451.172 296.382C448.214 297.456 447.589 293.561 447.589 293.561C447.589 293.561 448.446 283.966 447.394 266.218C446.342 248.47 438.33 249.903 438.33 249.903" fill="#EBEBEB"/>
<path d="M439.116 265.812C439.116 265.812 439.137 265.938 439.159 266.184C439.179 266.447 439.207 266.808 439.243 267.273C439.309 268.251 439.405 269.662 439.528 271.469C439.77 275.112 440.082 280.387 440.442 286.905C441.167 299.942 442.013 317.96 442.883 337.862C443.752 357.771 444.554 375.789 445.206 388.829C445.537 395.335 445.805 400.607 445.991 404.271C446.081 406.08 446.151 407.491 446.2 408.47C446.219 408.936 446.233 409.299 446.244 409.562C446.252 409.808 446.245 409.935 446.245 409.935C446.245 409.935 446.224 409.81 446.203 409.564C446.183 409.301 446.155 408.939 446.119 408.474C446.053 407.496 445.957 406.086 445.835 404.28C445.592 400.637 445.281 395.363 444.921 388.845C444.196 375.808 443.35 357.788 442.48 337.88C441.611 317.978 440.809 299.96 440.158 286.921C439.827 280.415 439.559 275.144 439.372 271.479C439.282 269.67 439.212 268.259 439.163 267.28C439.144 266.814 439.129 266.451 439.119 266.187C439.109 265.94 439.116 265.812 439.116 265.812Z" fill="#E0E0E0"/>
<path d="M426.747 301.431C426.767 301.411 427 301.607 427.405 301.978C427.812 302.347 428.383 302.9 429.082 303.589C430.477 304.971 432.353 306.93 434.382 309.13C436.368 311.302 438.163 313.266 439.551 314.786C440.168 315.455 440.694 316.024 441.125 316.492C441.498 316.894 441.694 317.126 441.675 317.146C441.656 317.166 441.421 316.972 441.013 316.604C440.607 316.233 440.036 315.681 439.344 314.984C437.962 313.588 436.113 311.606 434.084 309.405C432.084 307.248 430.275 305.298 428.876 303.789C428.255 303.123 427.727 302.556 427.293 302.09C426.923 301.685 426.727 301.451 426.747 301.431Z" fill="#E0E0E0"/>
<path d="M442.724 316.798C442.644 316.719 446.51 312.672 451.356 307.758C456.204 302.843 460.198 298.923 460.277 299.001C460.356 299.079 456.492 303.126 451.644 308.042C446.798 312.956 442.803 316.876 442.724 316.798Z" fill="#E0E0E0"/>
<path d="M442.68 347.425C442.667 347.4 442.93 347.234 443.417 346.956C443.981 346.639 444.672 346.252 445.484 345.796C447.228 344.816 449.633 343.454 452.232 341.856C454.836 340.264 457.143 338.742 458.805 337.629C459.58 337.112 460.239 336.673 460.777 336.314C461.245 336.006 461.512 335.847 461.528 335.869C461.544 335.892 461.309 336.094 460.869 336.441C460.428 336.788 459.781 337.277 458.968 337.864C457.344 339.04 455.055 340.604 452.443 342.201C449.836 343.804 447.401 345.13 445.619 346.048C444.726 346.503 443.999 346.863 443.489 347.096C442.98 347.332 442.693 347.45 442.68 347.425Z" fill="#E0E0E0"/>
<path d="M425.169 336.706C425.183 336.682 425.443 336.805 425.9 337.049C426.357 337.293 427.012 337.657 427.816 338.114C429.425 339.028 431.634 340.315 434.06 341.758C436.487 343.201 438.673 344.528 440.244 345.505C441.03 345.994 441.662 346.395 442.094 346.68C442.526 346.965 442.758 347.134 442.744 347.158C442.73 347.182 442.47 347.059 442.013 346.815C441.556 346.571 440.901 346.207 440.097 345.75C438.488 344.836 436.279 343.548 433.852 342.105C431.426 340.662 429.24 339.336 427.669 338.359C426.883 337.87 426.251 337.469 425.819 337.184C425.387 336.899 425.154 336.73 425.169 336.706Z" fill="#E0E0E0"/>
<path d="M421.696 363.741C421.71 363.717 422.04 363.878 422.626 364.191C423.277 364.55 424.102 365.005 425.086 365.548C427.154 366.709 429.997 368.337 433.125 370.157C436.253 371.977 439.074 373.645 441.105 374.869C442.063 375.456 442.866 375.948 443.5 376.337C444.061 376.691 444.364 376.899 444.35 376.923C444.336 376.947 444.006 376.786 443.42 376.473C442.769 376.114 441.944 375.659 440.96 375.116C438.892 373.955 436.049 372.327 432.92 370.507C429.793 368.687 426.972 367.02 424.941 365.796C423.983 365.209 423.18 364.717 422.546 364.328C421.986 363.972 421.682 363.765 421.696 363.741Z" fill="#E0E0E0"/>
<path d="M443.899 376.452C443.885 376.428 444.213 376.21 444.818 375.836C445.49 375.427 446.353 374.901 447.387 374.272C449.555 372.951 452.544 371.116 455.787 369C459.035 366.888 461.925 364.901 464.008 363.45C465.002 362.759 465.832 362.183 466.478 361.734C467.064 361.332 467.395 361.12 467.412 361.142C467.429 361.164 467.129 361.419 466.571 361.861C466.014 362.303 465.197 362.928 464.174 363.683C462.131 365.196 459.261 367.224 456.007 369.34C452.758 371.46 449.739 373.259 447.531 374.519C446.425 375.146 445.525 375.644 444.895 375.973C444.267 376.305 443.913 376.477 443.899 376.452Z" fill="#E0E0E0"/>
<path d="M459.783 394.695H430.543L440.087 466.936H450.24L459.783 394.695Z" fill="#E0E0E0"/>
<path d="M432.06 403.576C432.049 403.583 432.092 403.678 432.216 403.833C432.34 403.986 432.57 404.186 432.921 404.338C433.614 404.64 434.832 404.664 436.009 403.959C437.19 403.308 438.218 402.028 439.801 401.463C441.37 400.864 443.314 400.971 445.178 401.57C447.063 402.153 448.701 403.107 450.185 403.996C451.672 404.881 453.034 405.67 454.257 406.181C455.47 406.711 456.528 406.955 457.26 407.049C457.627 407.098 457.913 407.112 458.108 407.106C458.302 407.106 458.404 407.098 458.405 407.081C458.422 406.986 456.75 407 454.394 405.872C453.214 405.332 451.887 404.525 450.412 403.619C448.944 402.713 447.267 401.716 445.32 401.114C443.396 400.495 441.328 400.383 439.645 401.052C438.804 401.372 438.098 401.875 437.509 402.373C436.912 402.867 436.377 403.332 435.835 403.67C434.766 404.361 433.642 404.39 432.987 404.164C432.313 403.93 432.097 403.535 432.06 403.576Z" fill="#F5F5F5"/>
<path d="M433.128 416.879C433.167 416.903 433.36 416.581 433.817 416.104C434.282 415.64 435.045 415.033 436.152 414.623C437.249 414.202 438.659 413.952 440.218 414.011C441.784 414.065 443.491 414.409 445.306 414.704C447.118 415.009 448.913 415.145 450.516 414.92C452.119 414.714 453.511 414.253 454.615 413.75C455.722 413.245 456.542 412.692 457.08 412.285C457.62 411.876 457.877 411.601 457.861 411.582C457.806 411.503 456.677 412.514 454.48 413.441C453.384 413.893 452.02 414.309 450.463 414.484C448.906 414.677 447.182 414.535 445.381 414.233C443.581 413.941 441.847 413.603 440.231 413.572C438.613 413.536 437.154 413.83 436.025 414.311C434.886 414.78 434.116 415.462 433.679 415.98C433.468 416.25 433.315 416.466 433.237 416.628C433.151 416.785 433.114 416.871 433.128 416.879Z" fill="#F5F5F5"/>
<path d="M456.47 424.004C456.481 423.982 456.21 423.8 455.664 423.586C455.12 423.371 454.289 423.15 453.241 423.066C452.194 422.983 450.939 423.05 449.577 423.276C448.213 423.497 446.752 423.874 445.216 424.2C443.682 424.523 442.202 424.741 440.862 424.692C439.522 424.645 438.33 424.352 437.405 423.944C435.523 423.118 434.853 421.916 434.783 421.992C434.765 422.003 434.898 422.304 435.278 422.755C435.655 423.205 436.313 423.78 437.263 424.25C438.212 424.717 439.448 425.058 440.843 425.131C442.241 425.207 443.763 424.994 445.315 424.667C446.867 424.337 448.318 423.95 449.652 423.71C450.985 423.465 452.203 423.366 453.222 423.404C455.274 423.471 456.44 424.092 456.47 424.004Z" fill="#F5F5F5"/>
<path d="M435.712 434.023C435.726 434.1 436.756 433.372 438.551 433.737C439.431 433.896 440.415 434.342 441.521 434.844C442.623 435.358 443.951 435.797 445.376 435.907C448.249 436.183 450.804 435.255 452.371 434.286C453.174 433.81 453.733 433.298 454.112 432.947C454.468 432.568 454.65 432.35 454.627 432.328C454.563 432.258 453.795 433.122 452.202 433.994C450.637 434.861 448.17 435.697 445.419 435.432C442.651 435.274 440.526 433.623 438.607 433.405C437.671 433.265 436.889 433.399 436.401 433.596C435.907 433.788 435.698 434.006 435.712 434.023Z" fill="#F5F5F5"/>
<path d="M437.34 447.89C437.34 447.945 438.321 447.938 439.778 447.406C441.248 446.915 443.067 445.788 445.192 444.944C446.258 444.538 447.327 444.288 448.299 444.293C449.272 444.298 450.14 444.535 450.797 444.863C452.14 445.532 452.529 446.482 452.603 446.422C452.624 446.413 452.565 446.174 452.326 445.806C452.09 445.439 451.642 444.96 450.956 444.566C450.272 444.175 449.351 443.884 448.305 443.854C447.256 443.823 446.126 444.078 445.022 444.499C442.82 445.377 441.059 446.536 439.655 447.093C438.268 447.69 437.329 447.814 437.34 447.89Z" fill="#F5F5F5"/>
<path d="M438.774 454.338C438.758 454.398 439.459 454.65 440.625 454.939C441.79 455.229 443.426 455.538 445.253 455.719C447.08 455.897 448.745 455.912 449.945 455.855C451.146 455.799 451.881 455.688 451.878 455.626C451.871 455.482 448.915 455.608 445.3 455.244C441.684 454.898 438.809 454.199 438.774 454.338Z" fill="#F5F5F5"/>
<path d="M133.511 64.457H37.9453V202.976H133.511V64.457Z" fill="#E0E0E0"/>
<path d="M128.722 64.457H33.1562V202.976H128.722V64.457Z" fill="#F5F5F5"/>
<path d="M116.851 79.4609H45.0312V187.975H116.851V79.4609Z" fill="white"/>
<path d="M116.852 187.974C116.852 187.974 116.843 187.79 116.838 187.443C116.835 187.085 116.83 186.573 116.824 185.904C116.817 184.54 116.808 182.544 116.795 179.952C116.78 174.751 116.758 167.172 116.731 157.599C116.702 138.464 116.662 111.368 116.614 79.4602L116.852 79.6982C94.9104 79.7052 70.5964 79.7122 45.0414 79.7192H45.0324L45.2924 79.4592C45.2724 120.395 45.2544 158.138 45.2394 187.973L45.0324 187.766C66.9044 187.812 84.8324 187.849 97.3074 187.875C103.547 187.898 108.421 187.916 111.749 187.928C113.403 187.938 114.671 187.946 115.54 187.951C116.399 187.959 116.852 187.974 116.852 187.974C116.852 187.974 116.429 187.989 115.585 187.996C114.725 188.001 113.47 188.009 111.833 188.019C108.515 188.031 103.657 188.049 97.4374 188.072C84.9314 188.098 66.9594 188.135 45.0334 188.181H44.8264V187.973C44.8114 158.138 44.7934 120.395 44.7734 79.4592V79.1992H45.0334H45.0424C70.5974 79.2072 94.9114 79.2142 116.853 79.2202H117.092V79.4582C117.044 111.431 117.003 138.581 116.975 157.754C116.948 167.305 116.926 174.865 116.911 180.053C116.899 182.624 116.889 184.604 116.882 185.957C116.876 186.615 116.871 187.117 116.868 187.469C116.861 187.809 116.852 187.974 116.852 187.974Z" fill="#E0E0E0"/>
<path d="M128.994 64.4586C129.05 64.5016 128.401 65.4486 127.291 66.9336C126.181 68.4186 124.605 70.4376 122.807 72.6216C121.008 74.8056 119.328 76.7386 118.083 78.1126C116.839 79.4866 116.034 80.3046 115.98 80.2586C115.925 80.2106 116.632 79.3076 117.804 77.8726C119.085 76.3186 120.662 74.4056 122.405 72.2906C124.147 70.1746 125.721 68.2616 127.002 66.7056C128.185 65.2816 128.937 64.4146 128.994 64.4586Z" fill="#E0E0E0"/>
<path d="M117.215 187.625C120.782 193.297 124.993 198.564 129.742 203.291Z" fill="white"/>
<path d="M129.742 203.292C129.695 203.34 128.842 202.6 127.558 201.305C126.274 200.011 124.572 198.149 122.833 195.976C121.095 193.8 119.652 191.731 118.673 190.193C117.693 188.656 117.159 187.661 117.215 187.626C117.28 187.585 117.923 188.509 118.977 189.987C120.03 191.466 121.511 193.488 123.239 195.651C124.968 197.811 126.615 199.7 127.826 201.053C129.036 202.407 129.796 203.237 129.742 203.292Z" fill="#E0E0E0"/>
<path d="M33.1445 202.866C37.3175 197.718 41.4895 192.57 45.6625 187.422Z" fill="white"/>
<path d="M45.6619 187.424C45.7729 187.514 43.0609 191.045 39.6049 195.309C36.1479 199.575 33.2549 202.958 33.1439 202.868C33.0329 202.778 35.7439 199.248 39.2009 194.982C42.6569 190.718 45.5499 187.333 45.6619 187.424Z" fill="#E0E0E0"/>
<path d="M33.156 64.4588C33.269 64.3698 35.989 67.6218 39.232 71.7218C42.476 75.8228 45.013 79.2188 44.9 79.3078C44.787 79.3968 42.067 76.1458 38.824 72.0438C35.581 67.9448 33.043 64.5478 33.156 64.4588Z" fill="#E0E0E0"/>
<path d="M94.4738 101.496H70.4258V169.775H94.4738V101.496Z" fill="#E0E0E0"/>
<path d="M253.294 41.293H178.18V119.593H253.294V41.293Z" fill="#E0E0E0"/>
<path d="M248.208 41.293H173.094V119.593H248.208V41.293Z" fill="#FAFAFA"/>
<path d="M248.231 119.617H173.07V41.2695H248.231V119.617ZM173.117 119.57H248.184V41.3155H173.117V119.57Z" fill="#E0E0E0"/>
<path d="M238.11 51.8203H183.191V109.068H238.11V51.8203Z" fill="white"/>
<path d="M183.192 109.449C183.235 109.5 182.714 110.099 181.837 111.025C180.96 111.95 179.728 113.203 178.346 114.564C176.964 115.925 175.694 117.138 174.758 117.998C173.822 118.858 173.218 119.368 173.171 119.32C173.124 119.272 173.642 118.676 174.519 117.751C175.396 116.826 176.632 115.57 178.018 114.205C179.404 112.84 180.676 111.625 181.612 110.765C182.548 109.904 183.149 109.398 183.192 109.449Z" fill="#E0E0E0"/>
<path d="M238.109 109.307C238.16 109.264 238.759 109.785 239.685 110.662C240.61 111.539 241.863 112.772 243.224 114.153C244.585 115.535 245.798 116.805 246.658 117.741C247.519 118.678 248.028 119.281 247.98 119.328C247.932 119.375 247.336 118.857 246.411 117.98C245.486 117.103 244.23 115.867 242.865 114.481C241.501 113.096 240.285 111.823 239.425 110.887C238.564 109.95 238.058 109.35 238.109 109.307Z" fill="#E0E0E0"/>
<path d="M237.96 51.9728C237.917 51.9218 238.437 51.3228 239.314 50.3968C240.191 49.4708 241.423 48.2188 242.805 46.8578C244.187 45.4958 245.457 44.2838 246.393 43.4228C247.33 42.5618 247.933 42.0528 247.98 42.1008C248.027 42.1488 247.509 42.7438 246.632 43.6698C245.755 44.5948 244.519 45.8508 243.133 47.2158C241.748 48.5808 240.475 49.7958 239.538 50.6558C238.603 51.5178 238.003 52.0238 237.96 51.9728Z" fill="#E0E0E0"/>
<path d="M183.042 52.11C182.991 52.153 182.392 51.632 181.466 50.755C180.54 49.878 179.288 48.645 177.927 47.264C176.566 45.882 175.353 44.612 174.493 43.676C173.632 42.739 173.123 42.136 173.171 42.089C173.219 42.041 173.814 42.56 174.74 43.437C175.666 44.314 176.921 45.55 178.286 46.936C179.651 48.322 180.866 49.594 181.726 50.531C182.587 51.467 183.093 52.067 183.042 52.11Z" fill="#E0E0E0"/>
<path d="M237.961 109.068C237.957 109.064 237.953 108.97 237.949 108.79C237.946 108.595 237.942 108.332 237.937 107.991C237.931 107.273 237.923 106.241 237.912 104.901C237.899 102.189 237.88 98.2431 237.857 93.2331C237.831 83.2061 237.794 68.9221 237.749 51.8201L237.961 52.0321C221.973 52.0411 203.198 52.0521 183.198 52.0631H183.193L183.436 51.8201C183.423 72.8321 183.412 92.4901 183.402 109.068L183.193 108.86C199.605 108.904 213.269 108.941 222.849 108.966C227.635 108.989 231.401 109.008 233.988 109.02C235.266 109.031 236.25 109.039 236.935 109.044C237.259 109.049 237.51 109.053 237.696 109.056C237.868 109.061 237.957 109.064 237.961 109.068C237.965 109.072 237.883 109.076 237.719 109.08C237.538 109.083 237.294 109.087 236.98 109.092C236.304 109.098 235.334 109.106 234.073 109.116C231.497 109.129 227.748 109.147 222.981 109.171C213.369 109.197 199.659 109.234 183.192 109.278L182.984 109.279V109.069C182.974 92.4911 182.962 72.8331 182.949 51.8211V51.5781H183.192H183.197C203.197 51.5891 221.973 51.6001 237.96 51.6091H238.172V51.8211C238.127 68.9801 238.09 83.3111 238.064 93.3701C238.04 98.3601 238.021 102.289 238.008 104.99C237.997 106.313 237.989 107.331 237.983 108.04C237.978 108.371 237.974 108.626 237.971 108.816C237.969 108.987 237.965 109.073 237.961 109.068Z" fill="#E0E0E0"/>
<path d="M219.814 71.2812H201.488V89.6073H219.814V71.2812Z" fill="#EBEBEB"/>
<path d="M138.937 357.899L140.814 392.429C140.881 393.659 141.893 394.625 143.125 394.634L205.26 395.089C206.548 395.099 207.599 394.062 207.608 392.775L207.805 365.897C207.814 364.604 206.769 363.55 205.476 363.548L167.261 363.514C166.644 363.513 166.052 363.268 165.615 362.832L159.021 356.241C158.588 355.808 158.002 355.563 157.39 355.559L141.28 355.441C139.938 355.431 138.864 356.557 138.937 357.899Z" fill="#EBEBEB"/>
<path d="M207.869 359.492L139.977 358.996L139.68 399.565L207.572 400.061L207.869 359.492Z" fill="#F5F5F5"/>
<path d="M134.533 362.589L139.407 404.932C139.494 405.685 140.128 406.254 140.885 406.26L207.048 406.745C207.83 406.751 208.485 406.154 208.553 405.374L212.194 363.093C212.269 362.222 211.586 361.472 210.711 361.465L136.033 360.918C135.133 360.912 134.43 361.695 134.533 362.589Z" fill="#EBEBEB"/>
<path d="M246.886 377.354L248.767 411.96C248.834 413.193 249.848 414.16 251.083 414.17L313.354 414.626C314.644 414.635 315.698 413.597 315.707 412.307L315.904 385.37C315.914 384.074 314.866 383.017 313.57 383.016L275.272 382.982C274.653 382.981 274.06 382.735 273.622 382.298L267.014 375.693C266.58 375.259 265.993 375.014 265.379 375.009L249.234 374.891C247.889 374.881 246.812 376.009 246.886 377.354Z" fill="#EBEBEB"/>
<path d="M315.97 378.946L247.93 378.449L247.633 419.107L315.673 419.604L315.97 378.946Z" fill="#F5F5F5"/>
<path d="M242.475 382.056L247.359 424.492C247.446 425.246 248.081 425.817 248.841 425.823L315.149 426.309C315.933 426.315 316.589 425.717 316.657 424.935L320.306 382.562C320.381 381.689 319.696 380.937 318.82 380.931L243.979 380.383C243.076 380.375 242.372 381.159 242.475 382.056Z" fill="#EBEBEB"/>
<path d="M93.5536 318.854C83.3016 303.173 84.7966 280.771 97.0406 266.591C100.841 262.19 106.153 258.364 111.946 258.86C117.878 259.368 122.658 264.456 124.463 270.13C126.268 275.804 125.642 281.951 124.582 287.81C123.097 296.013 120.611 304.407 114.921 310.499C109.231 316.591 100.87 322.851 93.5536 318.854Z" fill="#FF5A01"/>
<path d="M96.6567 394.33C92.7957 385.322 95.5957 373.915 103.19 367.719C105.547 365.796 108.63 364.306 111.57 365.087C114.58 365.886 116.582 368.941 116.998 372.027C117.414 375.114 116.534 378.224 115.457 381.147C113.949 385.239 111.907 389.338 108.423 391.961C104.939 394.584 100.064 397.052 96.6567 394.33Z" fill="#FF5A01"/>
<path d="M74.502 388.944C77.321 375.042 69.994 359.703 57.41 353.158C53.504 351.127 48.696 349.923 44.76 351.895C40.729 353.914 38.793 358.832 39.112 363.328C39.432 367.824 41.594 371.973 43.981 375.797C47.323 381.152 51.423 386.359 57.132 389.051C62.841 391.743 70.475 393.805 74.502 388.944Z" fill="#FF5A01"/>
<path d="M76.2771 351.354C81.1851 335.515 72.8632 316.31 58.9922 307.222C54.6872 304.401 49.2362 302.438 44.4262 304.27C39.5012 306.146 36.6722 311.639 36.5162 316.907C36.3612 322.175 38.3892 327.254 40.7182 331.982C43.9782 338.602 48.1362 345.14 54.4612 348.94C60.7872 352.74 71.0241 356.536 76.2771 351.354Z" fill="#FF5A01"/>
<path d="M83.5678 428.775C83.5448 428.777 83.4898 428.513 83.4078 428.008C83.3218 427.431 83.2128 426.699 83.0788 425.799C83.0108 425.311 82.9368 424.778 82.8568 424.202C82.7438 423.617 82.6228 422.989 82.4938 422.318C82.2358 420.966 81.9698 419.423 81.5268 417.748C81.3228 416.905 81.1098 416.024 80.8878 415.107C80.6218 414.199 80.3448 413.256 80.0588 412.281C79.5308 410.315 78.7498 408.282 78.0188 406.115C76.3958 401.838 74.3788 397.223 71.9048 392.557C69.3838 387.914 66.6518 383.682 63.9838 379.964C62.5818 378.157 61.3188 376.382 59.9728 374.855C59.3178 374.078 58.6848 373.326 58.0758 372.602C57.4348 371.911 56.8188 371.246 56.2288 370.61C55.0778 369.315 53.9388 368.24 52.9548 367.278C52.4678 366.799 52.0108 366.351 51.5858 365.934C51.1498 365.549 50.7468 365.193 50.3778 364.866C49.7018 364.256 49.1518 363.761 48.7188 363.371C48.3438 363.023 48.1538 362.832 48.1688 362.814C48.1828 362.796 48.4018 362.952 48.8048 363.267C49.2598 363.633 49.8378 364.098 50.5488 364.67C50.9308 364.984 51.3478 365.326 51.7998 365.697C52.2378 366.103 52.7088 366.539 53.2118 367.005C54.2248 367.945 55.3928 369.002 56.5718 370.283C57.1748 370.913 57.8058 371.572 58.4608 372.256C59.0838 372.976 59.7298 373.723 60.3978 374.496C61.7708 376.017 63.0578 377.788 64.4818 379.597C67.1938 383.317 69.9588 387.567 72.4958 392.239C74.9858 396.934 76.9988 401.587 78.5998 405.902C79.3198 408.088 80.0848 410.139 80.5938 412.124C80.8688 413.108 81.1338 414.059 81.3898 414.976C81.5978 415.901 81.7978 416.79 81.9898 417.641C82.4048 419.332 82.6408 420.889 82.8638 422.253C82.9738 422.93 83.0778 423.564 83.1738 424.153C83.2328 424.734 83.2878 425.271 83.3388 425.764C83.4218 426.673 83.4898 427.411 83.5438 427.993C83.5818 428.505 83.5908 428.773 83.5678 428.775Z" fill="#263238"/>
<path d="M83.2067 431.623C83.1957 431.621 83.1957 431.514 83.2067 431.307C83.2247 431.06 83.2467 430.759 83.2747 430.389C83.3537 429.529 83.4627 428.355 83.5997 426.87C83.6757 426.101 83.7587 425.254 83.8507 424.33C83.9207 423.4 83.9457 422.385 84.0027 421.298C84.0837 419.121 84.2917 416.647 84.2157 413.905C84.2087 412.533 84.2017 411.098 84.1947 409.604C84.1797 408.109 84.0387 406.557 83.9627 404.948C83.8547 401.725 83.4167 398.309 83.0287 394.708C82.0447 387.533 80.5087 379.704 78.1697 371.675C75.7527 363.666 72.7727 356.263 69.6857 349.711C68.0477 346.481 66.5527 343.377 64.8857 340.616C64.0727 339.226 63.3447 337.848 62.5417 336.586C61.7327 335.329 60.9567 334.122 60.2147 332.969C58.7837 330.628 57.2607 328.668 56.0067 326.887C55.3667 326.007 54.7927 325.17 54.2257 324.428C53.6457 323.704 53.1137 323.039 52.6317 322.436C51.7077 321.266 50.9767 320.34 50.4417 319.663C50.2167 319.368 50.0347 319.127 49.8847 318.93C49.7617 318.762 49.7037 318.673 49.7117 318.665C49.7197 318.657 49.7967 318.732 49.9367 318.885C50.0997 319.07 50.2997 319.297 50.5447 319.575C51.1047 320.234 51.8687 321.134 52.8357 322.272C53.3337 322.865 53.8817 323.519 54.4797 324.232C55.0617 324.963 55.6527 325.791 56.3087 326.663C57.5947 328.427 59.1497 330.374 60.6117 332.706C61.3677 333.856 62.1597 335.06 62.9837 336.313C63.8007 337.572 64.5427 338.949 65.3697 340.339C67.0637 343.098 68.5837 346.205 70.2437 349.442C73.3747 356.007 76.3867 363.439 78.8147 371.484C81.1647 379.549 82.6897 387.42 83.6437 394.63C84.0167 398.248 84.4357 401.681 84.5197 404.918C84.5837 406.534 84.7127 408.092 84.7137 409.593C84.7057 411.093 84.6987 412.533 84.6917 413.91C84.7377 416.661 84.4957 419.142 84.3787 421.322C84.3037 422.411 84.2597 423.427 84.1707 424.358C84.0577 425.282 83.9547 426.129 83.8607 426.898C83.6707 428.379 83.5207 429.55 83.4107 430.408C83.3567 430.775 83.3127 431.074 83.2767 431.318C83.2407 431.52 83.2177 431.624 83.2067 431.623Z" fill="#263238"/>
<path d="M109.893 277.797C109.903 277.803 109.858 277.902 109.762 278.09C109.644 278.311 109.499 278.581 109.32 278.913C108.893 279.676 108.307 280.72 107.568 282.041C107.192 282.722 106.74 283.46 106.305 284.301C105.882 285.152 105.424 286.073 104.933 287.059C104.438 288.05 103.91 289.106 103.352 290.225C102.818 291.358 102.31 292.582 101.744 293.852C101.195 295.13 100.578 296.45 100.011 297.858C99.4655 299.276 98.8975 300.749 98.3095 302.274C98.0165 303.037 97.7175 303.813 97.4145 304.601C97.1435 305.402 96.8685 306.215 96.5895 307.04C96.0335 308.691 95.4605 310.39 94.8735 312.131C92.7005 319.158 90.6415 326.983 88.9025 335.292C87.2195 343.617 86.0375 351.624 85.1655 358.93C84.4175 366.249 83.8655 372.857 83.7145 378.421C83.5735 381.201 83.5445 383.718 83.5355 385.929C83.4995 388.14 83.4915 390.045 83.5435 391.601C83.5645 393.115 83.5815 394.312 83.5935 395.187C83.5915 395.564 83.5905 395.871 83.5895 396.121C83.5845 396.332 83.5765 396.44 83.5655 396.44C83.5535 396.44 83.5395 396.333 83.5215 396.124C83.5045 395.875 83.4845 395.569 83.4585 395.193C83.4155 394.319 83.3565 393.122 83.2825 391.608C83.1905 390.051 83.1605 388.144 83.1605 385.929C83.1335 383.714 83.1295 381.192 83.2405 378.405C83.3305 372.827 83.8355 366.201 84.5515 358.862C85.3915 351.535 86.5575 343.504 88.2455 335.157C89.9885 326.825 92.0725 318.981 94.2845 311.943C94.8825 310.199 95.4655 308.498 96.0325 306.844C96.3175 306.018 96.5985 305.205 96.8755 304.403C97.1855 303.614 97.4905 302.838 97.7895 302.074C98.3915 300.549 98.9735 299.076 99.5325 297.659C100.114 296.252 100.746 294.933 101.31 293.658C101.891 292.39 102.415 291.169 102.966 290.04C103.543 288.926 104.087 287.874 104.598 286.888C105.107 285.908 105.583 284.994 106.022 284.148C106.475 283.314 106.945 282.583 107.339 281.911C108.126 280.615 108.749 279.59 109.203 278.842C109.404 278.524 109.568 278.264 109.702 278.053C109.819 277.878 109.884 277.791 109.893 277.797Z" fill="#263238"/>
<path d="M106.412 374.012C106.45 374.038 106.06 374.719 105.322 375.926C104.572 377.124 103.543 378.895 102.336 381.112C101.119 383.325 99.795 386.027 98.452 389.081C97.142 392.149 95.8329 395.579 94.6839 399.254C93.5589 402.938 92.7059 406.509 92.0569 409.782C91.4429 413.062 91.0119 416.04 90.7679 418.553C90.5129 421.065 90.3649 423.107 90.3079 424.519C90.2369 425.931 90.1749 426.714 90.1289 426.714C90.0829 426.714 90.0559 425.931 90.0469 424.512C90.0239 423.094 90.0999 421.041 90.2959 418.51C90.4799 415.978 90.8639 412.974 91.4489 409.667C92.0689 406.366 92.9099 402.765 94.0429 399.055C95.1999 395.354 96.5369 391.906 97.8869 388.832C99.2689 385.771 100.646 383.075 101.922 380.881C103.188 378.682 104.283 376.942 105.103 375.784C105.909 374.617 106.373 373.986 106.412 374.012Z" fill="#263238"/>
<path d="M63.4336 421.719H108.468L103.019 467.714H69.0426L63.4336 421.719Z" fill="#455A64"/>
<path d="M65.0742 462.746L68.8992 467.711H103.015L106.949 462.905L65.0742 462.746Z" fill="#263238"/>
<path d="M106.713 435.246C106.713 435.432 97.3678 435.582 85.8418 435.582C74.3128 435.582 64.9688 435.432 64.9688 435.246C64.9688 435.061 74.3118 434.91 85.8418 434.91C97.3678 434.91 106.713 435.06 106.713 435.246Z" fill="white"/>
<path d="M106.713 438.309C106.713 438.494 97.3678 438.645 85.8418 438.645C74.3128 438.645 64.9688 438.495 64.9688 438.309C64.9688 438.123 74.3118 437.973 85.8418 437.973C97.3678 437.973 106.713 438.124 106.713 438.309Z" fill="white"/>
<path d="M106.149 441.273C106.149 441.458 97.1312 441.609 86.0092 441.609C74.8832 441.609 65.8672 441.459 65.8672 441.273C65.8672 441.087 74.8832 440.938 86.0092 440.938C97.1312 440.938 106.149 441.087 106.149 441.273Z" fill="white"/>
<path d="M461.825 467.764C461.825 467.908 364.294 468.024 244.011 468.024C123.686 468.024 26.1758 467.907 26.1758 467.764C26.1758 467.62 123.686 467.504 244.011 467.504C364.294 467.504 461.825 467.62 461.825 467.764Z" fill="#263238"/>
<path d="M443.942 149.852C440.58 145.595 440.504 137.827 440.617 135.785C440.877 131.071 430.381 103.577 404.359 114.933L404.356 114.915C395.031 114.915 394.878 124.119 393.105 125.97C391.332 127.821 389.365 129.747 388.901 132.268C388.079 136.736 392.318 141.075 391.242 145.488C390.838 147.144 389.731 148.546 388.949 150.058L388.945 150.055C388.112 151.413 387.45 153.612 387.807 154.834C388.165 156.056 388.943 157.101 389.584 158.201C390.225 159.301 390.751 160.566 390.525 161.818C390.116 164.085 387.49 165.339 386.788 167.533C386.099 169.683 387.452 171.897 388.677 173.794C389.902 175.691 391.089 178.07 390.1 180.1C389.574 181.18 388.534 181.896 387.687 182.748C385.121 185.332 384.355 189.538 385.847 192.86C390.838 191.877 395.829 190.895 400.821 189.912C401.475 182.778 402.129 175.643 402.783 168.509C407.159 169.596 411.952 166.797 414.025 166.271L416.576 164.892C422.154 165.873 428.175 165.523 433.069 162.672C437.963 159.822 445.212 163.465 444.263 157.881C443.803 155.172 445.646 152.009 443.942 149.852Z" fill="#263238"/>
<path d="M426.876 123.835L406.514 117.806C399.954 116.844 395.246 124.779 394.563 131.374C393.804 138.702 393.166 147.677 393.816 153.194C395.122 164.286 403.513 166.029 403.513 166.029C403.514 166.015 402.044 181.74 401.906 185.672L427.018 172.819L430.187 127.907C430.307 125.896 428.869 124.128 426.876 123.835Z" fill="#FFD3C1"/>
<path d="M395.828 140.415C395.772 141.16 396.356 141.823 397.134 141.896C397.91 141.969 398.586 141.426 398.643 140.68C398.699 139.935 398.115 139.271 397.339 139.198C396.561 139.125 395.884 139.669 395.828 140.415Z" fill="#263238"/>
<path d="M395.071 137.177C395.208 137.362 396.416 137.1 397.914 137.545C399.415 137.975 400.366 138.867 400.564 138.78C400.66 138.744 400.547 138.451 400.136 138.053C399.732 137.659 398.993 137.173 398.058 136.899C397.123 136.627 396.271 136.647 395.751 136.773C395.221 136.897 395.001 137.093 395.071 137.177Z" fill="#263238"/>
<path d="M409.934 141.56C409.877 142.306 410.462 142.967 411.239 143.04C412.015 143.113 412.691 142.571 412.747 141.825C412.804 141.08 412.218 140.415 411.442 140.342C410.666 140.269 409.991 140.815 409.934 141.56Z" fill="#263238"/>
<path d="M410.187 139.181C410.408 139.285 411.503 138.547 413.204 138.308C414.901 138.054 416.254 138.436 416.414 138.277C416.493 138.205 416.252 137.995 415.659 137.819C415.077 137.643 414.119 137.527 413.06 137.681C412.001 137.835 411.155 138.212 410.689 138.54C410.214 138.871 410.08 139.135 410.187 139.181Z" fill="#263238"/>
<path d="M404.935 149.106C404.946 149.02 404.007 148.818 402.482 148.561C402.095 148.505 401.731 148.413 401.676 148.146C401.596 147.861 401.775 147.449 401.982 147.005C402.385 146.08 402.807 145.11 403.25 144.094C405.015 139.948 406.309 136.532 406.141 136.462C405.974 136.393 404.407 139.697 402.642 143.843C402.216 144.866 401.809 145.841 401.421 146.774C401.256 147.21 400.983 147.7 401.158 148.29C401.251 148.584 401.527 148.806 401.774 148.884C402.02 148.97 402.238 148.983 402.43 149.002C403.969 149.146 404.926 149.192 404.935 149.106Z" fill="#263238"/>
<path d="M403.511 166.031C403.511 166.031 410.755 166.96 418.279 162.84C418.154 162.862 413.761 170.512 403.242 168.955L403.511 166.031Z" fill="#F4AF9B"/>
<path d="M405.43 152.797C406.006 152.096 406.981 151.737 407.928 151.878C408.585 151.976 409.24 152.321 409.619 152.874C409.998 153.427 410.052 154.194 409.666 154.692C409.232 155.253 408.369 155.352 407.652 155.116C406.934 154.88 406.329 154.377 405.755 153.877C405.596 153.739 405.434 153.595 405.339 153.41C405.244 153.225 405.231 152.988 405.364 152.844" fill="#F4AF9B"/>
<path d="M409.367 150.34C409.12 150.316 409.05 151.967 407.59 153.081C406.132 154.2 404.38 153.943 404.357 154.174C404.33 154.277 404.736 154.51 405.478 154.56C406.206 154.615 407.279 154.423 408.173 153.741C409.064 153.057 409.473 152.113 409.557 151.438C409.648 150.752 409.48 150.335 409.367 150.34Z" fill="#263238"/>
<path d="M410.381 133.766C410.515 134.185 412.041 134.051 413.816 134.338C415.598 134.589 417.016 135.17 417.268 134.808C417.381 134.635 417.146 134.236 416.58 133.812C416.02 133.389 415.115 132.972 414.048 132.809C412.981 132.649 411.994 132.779 411.333 133.018C410.667 133.256 410.324 133.567 410.381 133.766Z" fill="#263238"/>
<path d="M396.706 132.784C396.96 133.14 398.022 132.824 399.283 132.858C400.545 132.848 401.601 133.184 401.861 132.833C401.976 132.662 401.822 132.309 401.369 131.963C400.923 131.619 400.165 131.321 399.298 131.313C398.431 131.306 397.668 131.588 397.216 131.925C396.755 132.261 396.595 132.611 396.706 132.784Z" fill="#263238"/>
<path d="M404.111 116.363C412.296 117.662 420.326 119.939 427.974 123.133C429.747 123.873 431.606 124.753 432.609 126.392C433.67 128.127 433.533 130.311 433.361 132.337C432.522 142.216 431.683 152.096 430.844 161.975L429.782 161.92C426.727 162.416 426.516 160.863 424.331 158.671C422.146 156.479 421.1 153.21 421.605 150.157C422.051 147.463 423.615 144.764 422.774 142.166C421.662 138.731 416.954 137.508 415.822 134.079C415.164 132.087 415.909 129.813 415.153 127.856C414.442 126.016 412.576 124.9 410.748 124.159C408.919 123.418 406.949 122.879 405.439 121.61C403.927 120.342 403.043 118.021 404.111 116.363Z" fill="#263238"/>
<path d="M337.268 173.314H256.554C253.267 173.314 250.602 170.649 250.602 167.362V102.487C250.602 99.2002 253.267 96.5352 256.554 96.5352H337.268C340.556 96.5352 343.221 99.2002 343.221 102.487V167.362C343.221 170.649 340.556 173.314 337.268 173.314Z" fill="#263238"/>
<path d="M296.91 146.782C304.282 146.782 310.259 140.806 310.259 133.434C310.259 126.062 304.282 120.086 296.91 120.086C289.539 120.086 283.562 126.062 283.562 133.434C283.562 140.806 289.539 146.782 296.91 146.782Z" fill="#FF5A01"/>
<path d="M293.695 137.338V129.463C293.695 129.079 294.108 128.838 294.443 129.026L301.482 132.994C301.823 133.186 301.822 133.679 301.479 133.869L294.44 137.777C294.106 137.962 293.695 137.721 293.695 137.338Z" fill="white"/>
<path d="M380.677 431.541L382.986 453.791C382.986 453.791 361.146 463.611 361.172 467.764L404.474 464.836L402.299 430.02L380.677 431.541Z" fill="#455A64"/>
<g opacity="0.3">
<path d="M380.677 431.541L382.986 453.791C382.986 453.791 361.146 463.611 361.172 467.764L404.474 464.836L402.299 430.02L380.677 431.541Z" fill="black"/>
</g>
<g opacity="0.6">
<path d="M396.247 451.007C397.101 451.18 397.743 452.083 397.606 452.943C397.469 453.803 396.556 454.464 395.7 454.307C394.844 454.15 394.039 453.089 394.271 452.25C394.504 451.411 395.618 450.693 396.412 451.051" fill="white"/>
</g>
<g opacity="0.6">
<path d="M404.472 464.837L404.116 461.336L362.732 465.452C362.732 465.452 360.861 466.421 361.171 467.764L404.472 464.837Z" fill="white"/>
</g>
<path d="M382.268 453.619C382.289 453.83 383.353 453.854 384.439 454.464C385.541 455.045 386.139 455.925 386.328 455.828C386.52 455.774 386.119 454.531 384.791 453.816C383.471 453.089 382.209 453.428 382.268 453.619Z" fill="#263238"/>
<path d="M377.852 455.803C377.818 456.011 378.758 456.309 379.536 457.155C380.339 457.978 380.586 458.932 380.796 458.909C380.997 458.929 381.059 457.681 380.071 456.648C379.093 455.605 377.844 455.601 377.852 455.803Z" fill="#263238"/>
<path d="M375.64 461.412C375.835 461.444 376.058 460.368 375.437 459.247C374.824 458.121 373.796 457.732 373.718 457.914C373.61 458.096 374.294 458.674 374.79 459.602C375.308 460.518 375.429 461.405 375.64 461.412Z" fill="#263238"/>
<path d="M382.302 448.49C382.404 448.677 383.354 448.319 384.555 448.32C385.756 448.296 386.712 448.634 386.811 448.445C386.923 448.284 385.962 447.562 384.548 447.582C383.134 447.591 382.187 448.331 382.302 448.49Z" fill="#263238"/>
<path d="M381.922 443.99C381.926 444.077 382.77 444.152 384.09 443.832C384.747 443.672 385.515 443.402 386.312 442.981C386.71 442.771 387.114 442.523 387.513 442.236C387.704 442.094 387.932 441.949 388.133 441.682C388.352 441.446 388.448 440.876 388.154 440.551C387.91 440.233 387.508 440.116 387.195 440.13C386.875 440.141 386.621 440.223 386.389 440.298C385.915 440.447 385.473 440.638 385.072 440.852C384.27 441.284 383.63 441.806 383.161 442.3C382.219 443.298 381.93 444.111 382.005 444.147C382.106 444.21 382.549 443.515 383.52 442.678C384.004 442.262 384.629 441.822 385.381 441.458C385.758 441.278 386.166 441.117 386.6 440.99C387.051 440.839 387.44 440.809 387.572 441.005C387.62 441.08 387.628 441.11 387.541 441.251C387.45 441.381 387.273 441.515 387.085 441.656C386.719 441.932 386.348 442.175 385.983 442.388C385.253 442.814 384.548 443.119 383.941 443.333C382.723 443.762 381.911 443.875 381.922 443.99Z" fill="#263238"/>
<path d="M382.215 444.275C382.292 444.303 382.66 443.517 382.645 442.142C382.635 441.46 382.509 440.642 382.189 439.788C382.027 439.362 381.816 438.929 381.548 438.509C381.265 438.099 380.917 437.547 380.091 437.508C379.662 437.521 379.328 437.88 379.226 438.174C379.103 438.476 379.091 438.73 379.057 438.984C379.011 439.495 379.054 439.99 379.154 440.445C379.353 441.357 379.782 442.099 380.232 442.622C381.154 443.687 382.054 443.88 382.066 443.807C382.13 443.696 381.365 443.338 380.644 442.303C380.289 441.793 379.958 441.111 379.82 440.312C379.75 439.914 379.728 439.488 379.775 439.056C379.812 438.591 379.959 438.208 380.135 438.243C380.35 438.225 380.741 438.547 380.943 438.902C381.192 439.275 381.394 439.66 381.559 440.041C381.883 440.805 382.052 441.546 382.125 442.176C382.271 443.444 382.098 444.25 382.215 444.275Z" fill="#263238"/>
<path d="M376.923 268.703C376.923 268.703 357.739 355.782 357.151 363.557C356.563 371.332 380.924 438.462 380.924 438.462L401.888 434.504C401.888 434.504 400.556 335.372 399.876 333.428C399.196 331.484 405.233 282.765 405.233 282.765L376.923 268.703Z" fill="#263238"/>
<path d="M390.317 432.574L390.549 454.942C390.549 454.942 367.89 462.69 367.531 466.827L410.912 467.279L411.987 433.068L390.317 432.574Z" fill="#455A64"/>
<g opacity="0.6">
<path d="M404.013 453.404C404.847 453.655 405.403 454.614 405.186 455.457C404.97 456.3 403.999 456.874 403.161 456.638C402.323 456.402 401.62 455.271 401.93 454.457C402.24 453.643 403.416 453.031 404.173 453.462" fill="white"/>
</g>
<g opacity="0.6">
<path d="M410.913 467.28L410.889 464.418L369.301 464.671C369.301 464.671 367.348 465.462 367.532 466.828L410.913 467.28Z" fill="white"/>
</g>
<path d="M389.853 454.702C389.855 454.914 390.911 455.037 391.937 455.745C392.98 456.426 393.494 457.358 393.691 457.28C393.887 457.244 393.604 455.968 392.347 455.133C391.1 454.287 389.812 454.507 389.853 454.702Z" fill="#263238"/>
<path d="M385.252 456.47C385.199 456.674 386.107 457.058 386.803 457.972C387.526 458.866 387.683 459.839 387.894 459.836C388.092 459.874 388.271 458.637 387.383 457.517C386.506 456.389 385.262 456.269 385.252 456.47Z" fill="#263238"/>
<path d="M382.531 461.849C382.722 461.899 383.044 460.848 382.53 459.674C382.024 458.496 381.037 458.013 380.942 458.187C380.818 458.358 381.445 458.997 381.853 459.968C382.283 460.928 382.321 461.823 382.531 461.849Z" fill="#263238"/>
<path d="M390.366 449.602C390.45 449.797 391.429 449.53 392.625 449.642C393.823 449.729 394.744 450.155 394.859 449.976C394.985 449.826 394.096 449.019 392.686 448.906C391.278 448.784 390.266 449.433 390.366 449.602Z" fill="#263238"/>
<g opacity="0.3">
<path d="M390.367 437.004L390.403 440.99L411.732 441.341L411.851 437.753L390.367 437.004Z" fill="black"/>
</g>
<path d="M390.402 445.086C390.398 445.174 391.231 445.326 392.575 445.13C393.244 445.032 394.034 444.834 394.866 444.49C395.281 444.317 395.707 444.109 396.131 443.86C396.334 443.737 396.575 443.613 396.8 443.366C397.041 443.151 397.188 442.593 396.926 442.242C396.712 441.903 396.323 441.749 396.01 441.734C395.69 441.716 395.43 441.773 395.192 441.826C394.706 441.931 394.249 442.079 393.829 442.255C392.99 442.611 392.305 443.07 391.792 443.519C390.762 444.425 390.398 445.208 390.469 445.251C390.563 445.323 391.07 444.672 392.114 443.929C392.634 443.559 393.297 443.18 394.08 442.886C394.472 442.741 394.893 442.619 395.337 442.533C395.8 442.424 396.191 442.431 396.304 442.638C396.345 442.717 396.349 442.748 396.25 442.88C396.147 443.001 395.958 443.118 395.758 443.241C395.368 443.481 394.976 443.689 394.593 443.868C393.827 444.224 393.096 444.462 392.472 444.619C391.221 444.934 390.402 444.972 390.402 445.086Z" fill="#263238"/>
<path d="M390.671 445.398C390.745 445.432 391.185 444.684 391.298 443.314C391.352 442.634 391.302 441.809 391.062 440.928C390.94 440.489 390.77 440.037 390.542 439.594C390.299 439.159 390.003 438.578 389.184 438.463C388.755 438.436 388.39 438.761 388.261 439.045C388.11 439.335 388.075 439.587 388.018 439.837C387.925 440.342 387.922 440.838 387.979 441.299C388.092 442.226 388.45 443.004 388.85 443.568C389.669 444.714 390.546 444.991 390.566 444.919C390.64 444.814 389.911 444.387 389.29 443.29C388.984 442.749 388.717 442.039 388.655 441.23C388.622 440.827 388.64 440.402 388.727 439.976C388.807 439.516 388.989 439.148 389.161 439.2C389.377 439.202 389.735 439.56 389.903 439.932C390.116 440.327 390.283 440.728 390.411 441.123C390.663 441.914 390.762 442.669 390.776 443.303C390.803 444.576 390.556 445.363 390.671 445.398Z" fill="#263238"/>
<path d="M425.675 267.359L376.926 268.701L383.923 355.437L388.262 439.045L413.55 439.928C414.841 423.79 414.935 366.761 414.935 366.761L420.04 332.316C421.225 323.028 424.952 313.271 426.747 304.935C427.802 300.038 429.343 293.687 429.67 291.614C430.637 285.48 425.675 267.359 425.675 267.359Z" fill="#263238"/>
<path d="M379.763 288.66C379.772 288.66 379.774 288.792 379.769 289.049C379.761 289.329 379.751 289.707 379.737 290.189C379.697 291.217 379.64 292.688 379.568 294.569C379.484 296.47 379.387 298.797 379.306 301.499C379.221 304.201 379.092 307.276 379.029 310.678C378.844 317.48 378.743 325.583 378.776 334.578C378.844 343.573 379.06 353.462 379.565 363.831C380.099 374.202 380.884 384.064 381.775 393.016C382.266 397.487 382.7 401.74 383.238 405.704C383.498 407.687 383.718 409.607 383.983 411.445C384.252 413.282 384.509 415.045 384.756 416.729C385.219 420.1 385.763 423.129 386.194 425.797C386.616 428.467 387.033 430.757 387.386 432.627C387.72 434.479 387.981 435.927 388.164 436.94C388.244 437.415 388.307 437.788 388.354 438.064C388.394 438.318 388.41 438.449 388.402 438.45C388.394 438.452 388.361 438.324 388.304 438.074C388.245 437.8 388.166 437.431 388.065 436.959C387.861 435.95 387.569 434.508 387.195 432.663C386.813 430.798 386.368 428.512 385.92 425.845C385.463 423.18 384.894 420.152 384.408 416.782C384.151 415.099 383.883 413.335 383.603 411.499C383.327 409.661 383.097 407.742 382.829 405.758C382.272 401.793 381.823 397.538 381.319 393.064C380.402 384.107 379.603 374.237 379.068 363.857C378.563 353.48 378.36 343.583 378.317 334.581C378.31 325.579 378.446 317.473 378.677 310.669C378.762 307.266 378.917 304.19 379.028 301.488C379.135 298.786 379.261 296.46 379.374 294.56C379.487 292.681 379.575 291.211 379.637 290.184C379.671 289.703 379.698 289.326 379.718 289.047C379.74 288.79 379.755 288.659 379.763 288.66Z" fill="#455A64"/>
<path d="M352.014 172.657L339.529 159.328L329.688 166.221L339.529 180.776L352.014 172.657Z" fill="#FFD3C1"/>
<path d="M430.945 177.584L430.335 169.135L402.147 168.727L401.906 179.336C401.906 179.336 388.068 194.302 383.043 211.093C374.598 239.313 371.539 275.234 371.539 275.234H429.231C428.631 265.296 424.527 243.05 424.527 243.05L437.352 204.801C440.541 191.054 430.945 177.584 430.945 177.584Z" fill="#FF5A01"/>
<path d="M361.145 215.773C361.145 215.773 361.305 215.927 361.624 216.205C361.932 216.497 362.425 216.881 363.087 217.34C364.409 218.237 366.541 219.346 369.408 219.766C370.83 219.989 372.441 219.983 374.108 219.718C375.784 219.526 377.574 219.297 379.456 219.047C383.219 218.538 387.346 217.904 391.667 217.175C400.269 215.666 408.053 214.3 413.771 213.296C416.553 212.842 418.828 212.47 420.482 212.2C421.228 212.081 421.833 211.984 422.308 211.909C422.725 211.84 422.943 211.793 422.943 211.793C422.943 211.793 422.721 211.811 422.302 211.866C421.826 211.931 421.219 212.014 420.47 212.117C418.88 212.341 416.582 212.687 413.747 213.145C408.074 214.047 400.271 215.491 391.632 216.961C387.313 217.689 383.189 218.329 379.43 218.849C377.55 219.104 375.762 219.34 374.084 219.54C372.414 219.813 370.849 219.825 369.43 219.615C366.589 219.219 364.463 218.141 363.134 217.271C362.469 216.824 361.97 216.453 361.653 216.173C361.325 215.906 361.145 215.773 361.145 215.773Z" fill="#263238"/>
<path d="M432.718 202.137C432.725 202.138 432.746 202.061 432.779 201.912C432.821 201.707 432.865 201.492 432.913 201.26C433.023 200.693 433.171 199.869 433.313 198.845C433.582 196.811 433.874 193.893 433.105 190.792C432.319 187.688 430.376 185.321 428.622 184.212C427.747 183.646 426.952 183.336 426.388 183.198C425.825 183.055 425.504 183.035 425.504 183.035C425.475 183.104 426.824 183.181 428.537 184.339C430.238 185.46 432.123 187.797 432.895 190.845C433.653 193.897 433.391 196.792 433.161 198.825C433.039 199.848 432.914 200.674 432.83 201.245C432.796 201.479 432.766 201.696 432.736 201.903C432.717 202.056 432.711 202.136 432.718 202.137Z" fill="#263238"/>
<path d="M372.708 209.022C372.723 209.02 372.707 208.795 372.665 208.39C372.615 207.855 372.563 207.288 372.506 206.675C372.385 205.227 372.285 203.22 372.339 201.003C372.396 198.786 372.597 196.786 372.79 195.346C372.878 194.736 372.959 194.173 373.035 193.641C373.097 193.239 373.124 193.015 373.109 193.012C373.094 193.009 373.039 193.228 372.952 193.626C372.863 194.024 372.754 194.604 372.638 195.324C372.405 196.763 372.179 198.771 372.122 200.998C372.068 203.225 372.193 205.24 372.353 206.69C372.432 207.415 372.512 207.999 372.582 208.402C372.649 208.804 372.693 209.025 372.708 209.022Z" fill="#263238"/>
<path d="M402.239 179.18C402.826 177.184 404.084 175.464 405.321 173.791C407.341 171.058 409.522 168.204 412.666 166.915C414.808 166.036 420.34 166.523 421.814 164.737C426.413 159.163 419.675 155.702 422.123 148.036C424.804 139.641 423.418 140.927 423.624 134.324L433.84 129.906C435.448 131.107 439.913 135.442 439.419 137.388C438.925 139.333 439.071 141.501 439.81 143.816C441.381 148.739 446.801 151.642 449.365 156.129C451.991 160.726 449.032 166.819 448.961 172.113C448.891 177.407 450.889 183.771 456.056 184.924C454.129 188.805 450.892 192.022 446.999 193.926C445.918 192.455 444.838 190.983 443.757 189.512C444.4 193.505 441.682 197.763 437.789 198.861C436.702 194.215 435.553 189.43 432.741 185.576C429.928 181.722 424.992 179.003 420.384 180.237C417.3 181.063 414.915 183.441 412.161 185.055C409.407 186.669 405.503 187.354 403.299 185.045C401.862 183.538 401.652 181.176 402.239 179.18Z" fill="#263238"/>
<g opacity="0.3">
<path d="M383.043 218.382C396.337 215.956 414.051 213.056 427.345 210.63C427.841 210.539 428.369 210.451 428.838 210.638C429.719 210.989 429.976 212.208 429.579 213.07C429.182 213.932 428.337 214.492 427.496 214.932C423.134 217.212 418.018 217.395 413.098 217.53C404.696 217.759 391.446 218.153 383.043 218.382Z" fill="black"/>
</g>
<path d="M373.336 219.705C377.47 219.79 425.07 211.09 425.07 211.09Z" fill="#FF5A01"/>
<path d="M424.261 181.371C427.749 181.802 430.025 182.408 434.097 186.767C434.533 187.234 434.939 187.814 435.315 188.477C439.852 196.479 436.566 207.525 427.872 210.529L419.452 212.262L373.336 219.706C373.336 219.706 363.511 221.914 355.075 208.818C351.98 204.013 330.672 172.23 330.672 172.23L344.672 162.859L372.894 193.053L424.261 181.371Z" fill="#FF5A01"/>
<path d="M361.145 215.773C361.145 215.773 361.305 215.927 361.624 216.205C361.932 216.497 362.425 216.881 363.087 217.34C364.409 218.237 366.541 219.346 369.408 219.766C370.83 219.989 372.441 219.983 374.108 219.718C375.784 219.526 377.574 219.297 379.456 219.047C383.219 218.538 387.346 217.904 391.667 217.175C400.269 215.666 408.053 214.3 413.771 213.296C416.553 212.842 418.828 212.47 420.482 212.2C421.228 212.081 421.833 211.984 422.308 211.909C422.725 211.84 422.943 211.793 422.943 211.793C422.943 211.793 422.721 211.811 422.302 211.866C421.826 211.931 421.219 212.014 420.47 212.117C418.88 212.341 416.582 212.687 413.747 213.145C408.074 214.047 400.271 215.491 391.632 216.961C387.313 217.689 383.189 218.329 379.43 218.849C377.55 219.104 375.762 219.34 374.084 219.54C372.414 219.813 370.849 219.825 369.43 219.615C366.589 219.219 364.463 218.141 363.134 217.271C362.469 216.824 361.97 216.453 361.653 216.173C361.325 215.906 361.145 215.773 361.145 215.773Z" fill="#263238"/>
<path d="M432.722 202.137C432.729 202.138 432.75 202.061 432.783 201.912C432.825 201.707 432.869 201.492 432.917 201.26C433.027 200.693 433.175 199.869 433.317 198.845C433.586 196.811 433.878 193.893 433.109 190.792C432.323 187.688 430.38 185.321 428.626 184.212C427.751 183.646 426.956 183.336 426.392 183.198C425.829 183.055 425.508 183.035 425.508 183.035C425.479 183.104 426.828 183.181 428.541 184.339C430.242 185.46 432.127 187.797 432.899 190.845C433.657 193.897 433.395 196.792 433.165 198.825C433.043 199.848 432.918 200.674 432.834 201.245C432.8 201.479 432.77 201.696 432.74 201.903C432.721 202.056 432.715 202.136 432.722 202.137Z" fill="#263238"/>
<path d="M372.708 209.022C372.723 209.02 372.707 208.795 372.665 208.39C372.615 207.855 372.563 207.288 372.506 206.675C372.385 205.227 372.285 203.22 372.339 201.003C372.396 198.786 372.597 196.786 372.79 195.346C372.878 194.736 372.959 194.173 373.035 193.641C373.097 193.239 373.124 193.015 373.109 193.012C373.094 193.009 373.039 193.228 372.952 193.626C372.863 194.024 372.754 194.604 372.638 195.324C372.405 196.763 372.179 198.771 372.122 200.998C372.068 203.225 372.193 205.24 372.353 206.69C372.432 207.415 372.512 207.999 372.582 208.402C372.649 208.804 372.693 209.025 372.708 209.022Z" fill="#263238"/>
<path d="M339.465 149.037C339.085 146.064 339.134 144.208 339.208 143.304C339.243 142.886 338.893 142.55 338.475 142.589C337.715 142.659 336.597 143.088 335.906 144.834C335.484 145.9 335.609 147 335.619 148.067C335.636 149.845 335.619 151.248 335.619 151.248C335.619 151.248 326.739 140.619 324.939 140.139C323.964 139.879 323.617 140.171 323.262 140.742C322.932 141.271 323.589 142.513 323.589 142.513L328.595 149.676C328.595 149.676 321.027 140.768 319.66 140.794C318.257 140.82 317.688 141.83 318.552 143.444C319.197 144.65 325.808 152.486 325.808 152.486C325.808 152.486 318.735 145.659 317.332 145.716C315.922 145.774 316.161 147.264 316.901 147.885C317.641 148.507 322.876 154.588 322.876 154.588C322.876 154.588 317.766 150.275 316.734 150.614C315.676 150.961 316.148 152.097 316.693 153.021C317.238 153.945 330.053 166.766 330.053 166.766L341.164 161.185C341.458 159.624 341.402 158.022 340.995 156.486C340.489 154.584 339.81 151.738 339.465 149.037Z" fill="#FFD3C1"/>
<path d="M176.192 275.308C170.542 275.308 165.961 270.727 165.961 265.077V176.141C165.961 171.616 169.878 167.947 174.71 167.947H183.073C186.486 167.947 189.587 166.089 191.017 163.187L192.814 159.541C194.244 156.639 197.345 154.781 200.758 154.781H240.455C243.549 154.781 246.413 156.312 247.988 158.807L249.938 161.897C251.512 164.392 254.376 165.923 257.471 165.923H308.076C312.908 165.923 316.825 169.592 316.825 174.117V265.079C316.825 270.729 312.244 275.31 306.594 275.31H176.192V275.308Z" fill="#FF5A01"/>
<g opacity="0.3">
<path d="M176.192 275.308C170.542 275.308 165.961 270.727 165.961 265.077V176.141C165.961 171.616 169.878 167.947 174.71 167.947H183.073C186.486 167.947 189.587 166.089 191.017 163.187L192.814 159.541C194.244 156.639 197.345 154.781 200.758 154.781H240.455C243.549 154.781 246.413 156.312 247.988 158.807L249.938 161.897C251.512 164.392 254.376 165.923 257.471 165.923H308.076C312.908 165.923 316.825 169.592 316.825 174.117V265.079C316.825 270.729 312.244 275.31 306.594 275.31H176.192V275.308Z" fill="black"/>
</g>
<path d="M252.478 165.922L220.286 165.851L217.41 160.473C215.544 156.984 211.735 154.781 207.569 154.781H176.102C170.501 154.781 165.961 159.033 165.961 164.279V167.948V264.518C165.961 270.478 171.12 275.309 177.483 275.309H305.303C311.666 275.309 316.825 270.478 316.825 264.518V173.291C316.825 169.221 313.526 165.922 309.456 165.922H252.478Z" fill="#FF5A01"/>
<path d="M268.713 241.881H254.464C253.907 241.881 253.456 241.43 253.456 240.873C253.456 240.316 253.907 239.865 254.464 239.865H268.713C276.53 239.865 282.89 233.505 282.89 225.688C282.89 218.168 277.003 211.958 269.489 211.55C269.05 211.526 268.677 211.221 268.567 210.795C265.984 200.784 256.967 193.793 246.638 193.793C239.732 193.793 233.283 196.896 228.947 202.305C228.73 202.575 228.387 202.719 228.045 202.676C227.253 202.584 226.546 202.54 225.882 202.54C215.591 202.54 207.219 210.912 207.219 221.203C207.219 231.493 215.591 239.865 225.882 239.865H237.431C237.988 239.865 238.439 240.316 238.439 240.873C238.439 241.43 237.988 241.881 237.431 241.881H225.882C214.48 241.881 205.203 232.605 205.203 221.203C205.203 209.801 214.48 200.524 225.882 200.524C226.464 200.524 227.071 200.554 227.725 200.615C232.439 194.991 239.301 191.777 246.638 191.777C257.645 191.777 267.284 199.066 270.328 209.593C278.56 210.409 284.907 217.342 284.907 225.687C284.906 234.617 277.642 241.881 268.713 241.881Z" fill="white"/>
<path d="M245.672 250.98C245.115 250.98 244.664 250.529 244.664 249.972V223.973C244.664 223.416 245.115 222.965 245.672 222.965C246.229 222.965 246.68 223.416 246.68 223.973V249.972C246.68 250.529 246.229 250.98 245.672 250.98Z" fill="white"/>
<path d="M253.269 234.35C252.961 234.35 252.658 234.21 252.46 233.945L245.835 225.067C245.779 224.994 245.726 224.992 245.641 224.977C245.585 224.977 245.508 224.994 245.446 225.07L238.415 233.703C238.064 234.136 237.429 234.2 236.997 233.848C236.565 233.497 236.5 232.862 236.852 232.43L243.882 223.798C244.321 223.256 244.976 222.966 245.675 222.961C246.374 222.971 247.019 223.296 247.443 223.851L254.075 232.738C254.408 233.184 254.316 233.816 253.87 234.148C253.69 234.285 253.479 234.35 253.269 234.35Z" fill="white"/>
<path d="M226.16 296.382V291.898H226.987V296.348C226.987 298.204 227.859 299.054 229.38 299.054C230.912 299.054 231.784 298.205 231.784 296.348V291.898H232.589V296.382C232.589 298.629 231.381 299.792 229.38 299.792C227.378 299.792 226.16 298.63 226.16 296.382Z" fill="#263238"/>
<path d="M240.869 296.786C240.869 298.575 239.617 299.783 237.94 299.783C237.001 299.783 236.196 299.38 235.704 298.619V301.896H234.91V293.845H235.67V295.008C236.151 294.225 236.967 293.801 237.94 293.801C239.617 293.802 240.869 295.008 240.869 296.786ZM240.075 296.786C240.075 295.423 239.125 294.494 237.883 294.494C236.631 294.494 235.692 295.422 235.692 296.786C235.692 298.162 236.631 299.078 237.883 299.078C239.124 299.078 240.075 298.162 240.075 296.786Z" fill="#263238"/>
<path d="M242.488 291.43H243.282V299.727H242.488V291.43Z" fill="#263238"/>
<path d="M244.902 296.785C244.902 295.041 246.177 293.801 247.899 293.801C249.621 293.801 250.884 295.041 250.884 296.785C250.884 298.53 249.62 299.782 247.899 299.782C246.177 299.782 244.902 298.53 244.902 296.785ZM250.079 296.785C250.079 295.41 249.151 294.493 247.899 294.493C246.646 294.493 245.707 295.409 245.707 296.785C245.707 298.161 246.646 299.077 247.899 299.077C249.151 299.077 250.079 298.161 250.079 296.785Z" fill="#263238"/>
<path d="M256.908 296.081V299.726H256.148V298.81C255.79 299.413 255.097 299.783 254.124 299.783C252.793 299.783 251.977 299.09 251.977 298.072C251.977 297.166 252.558 296.405 254.246 296.405H256.113V296.048C256.113 295.041 255.543 294.494 254.447 294.494C253.687 294.494 252.971 294.762 252.491 295.187L252.133 294.594C252.725 294.091 253.598 293.801 254.525 293.801C256.047 293.801 256.908 294.56 256.908 296.081ZM256.114 297.959V296.997H254.269C253.129 296.997 252.76 297.445 252.76 298.048C252.76 298.73 253.308 299.155 254.247 299.155C255.141 299.156 255.801 298.731 256.114 297.959Z" fill="#263238"/>
<path d="M264.452 291.43V299.727H263.691V298.564C263.211 299.357 262.395 299.783 261.421 299.783C259.745 299.783 258.492 298.564 258.492 296.786C258.492 295.008 259.745 293.802 261.421 293.802C262.361 293.802 263.166 294.204 263.657 294.964V291.43H264.452ZM263.67 296.786C263.67 295.411 262.73 294.494 261.49 294.494C260.237 294.494 259.298 295.41 259.298 296.786C259.298 298.162 260.237 299.078 261.49 299.078C262.73 299.078 263.67 298.162 263.67 296.786Z" fill="#263238"/>
<path d="M266.148 299.169C266.148 298.823 266.416 298.566 266.741 298.566C267.066 298.566 267.344 298.823 267.344 299.169C267.344 299.515 267.065 299.784 266.741 299.784C266.416 299.784 266.148 299.515 266.148 299.169Z" fill="#263238"/>
<path d="M268.516 299.169C268.516 298.823 268.785 298.566 269.109 298.566C269.434 298.566 269.713 298.823 269.713 299.169C269.713 299.515 269.433 299.784 269.109 299.784C268.785 299.784 268.516 299.515 268.516 299.169Z" fill="#263238"/>
<path d="M270.887 299.169C270.887 298.823 271.156 298.566 271.479 298.566C271.804 298.566 272.082 298.823 272.082 299.169C272.082 299.515 271.803 299.784 271.479 299.784C271.155 299.784 270.887 299.515 270.887 299.169Z" fill="#263238"/>
<path d="M321.811 328.297H165.846C162.186 328.297 159.219 325.33 159.219 321.671V319.736C159.219 316.076 162.186 313.109 165.846 313.109H321.81C325.47 313.109 328.436 316.076 328.436 319.736V321.671C328.437 325.33 325.47 328.297 321.811 328.297Z" fill="#E0E0E0"/>
<path d="M237.202 328.297H165.846C162.186 328.297 159.219 325.33 159.219 321.671V319.736C159.219 316.076 162.186 313.109 165.846 313.109H237.202C240.862 313.109 243.828 316.076 243.828 319.736V321.671C243.828 325.33 240.862 328.297 237.202 328.297Z" fill="#FF5A01"/>
<g opacity="0.3">
<path d="M172.006 313.109L163 327.395L164.414 328.027C164.814 328.206 165.245 328.298 165.679 328.298H168.543L178.322 313.11H172.006V313.109Z" fill="white"/>
</g>
<g opacity="0.3">
<path d="M188.098 313.109L178.523 328.298H184.634L194.413 313.109H188.098Z" fill="white"/>
</g>
<g opacity="0.3">
<path d="M204.192 313.109L194.617 328.298H200.729L210.507 313.109H204.192Z" fill="white"/>
</g>
<g opacity="0.3">
<path d="M220.286 313.109L210.711 328.298H216.823L226.602 313.109H220.286Z" fill="white"/>
</g>
<g opacity="0.3">
<path d="M236.384 313.109L226.809 328.297H232.921L240.625 316.331L241.537 315.032C240.362 313.725 238.549 313.201 236.384 313.109Z" fill="white"/>
</g>
<path d="M321.956 328.3C321.955 328.28 322.27 328.29 322.871 328.203C323.467 328.119 324.371 327.909 325.38 327.286C326.385 326.687 327.487 325.603 328.111 323.992C328.425 323.188 328.565 322.265 328.545 321.267C328.525 320.265 328.616 319.189 328.309 318.114C327.779 315.972 325.869 313.834 323.168 313.353C322.505 313.217 321.812 313.246 321.091 313.242C320.374 313.244 319.642 313.246 318.896 313.247C317.404 313.25 315.854 313.254 314.249 313.258C307.825 313.27 300.513 313.283 292.432 313.297C260.089 313.317 215.43 313.344 166.105 313.374C164.621 313.381 163.155 313.902 162.015 314.839C160.88 315.782 160.09 317.112 159.803 318.547C159.652 319.262 159.687 320.001 159.68 320.769C159.677 321.539 159.672 322.264 159.826 322.976C160.13 324.4 160.943 325.692 162.059 326.606C163.181 327.519 164.609 328.019 166.042 328.036C167.532 328.037 169.016 328.039 170.494 328.04C173.452 328.041 176.385 328.041 179.294 328.042C190.926 328.047 202.146 328.052 212.835 328.057C234.21 328.078 253.458 328.097 269.628 328.113C285.786 328.148 298.863 328.177 307.916 328.196C312.427 328.217 315.932 328.234 318.326 328.245C319.506 328.256 320.41 328.265 321.033 328.271C321.643 328.282 321.956 328.3 321.956 328.3C321.956 328.3 321.643 328.318 321.034 328.327C320.411 328.333 319.507 328.342 318.327 328.353C315.934 328.364 312.428 328.381 307.917 328.402C298.864 328.422 285.787 328.45 269.629 328.485C253.459 328.501 234.21 328.52 212.836 328.541C202.147 328.546 190.927 328.551 179.295 328.556C176.387 328.557 173.453 328.557 170.495 328.558C169.015 328.557 167.53 328.557 166.039 328.556C164.491 328.539 162.944 327.997 161.731 327.011C160.524 326.024 159.644 324.627 159.315 323.086C159.147 322.315 159.154 321.514 159.157 320.769C159.164 320.023 159.125 319.229 159.289 318.446C159.599 316.892 160.454 315.452 161.682 314.434C162.914 313.42 164.503 312.854 166.106 312.848C215.431 312.878 260.09 312.905 292.433 312.925C300.514 312.939 307.826 312.952 314.25 312.964C315.855 312.968 317.405 312.971 318.897 312.975C319.643 312.977 320.375 312.979 321.092 312.98C321.802 312.987 322.525 312.961 323.215 313.106C326.017 313.622 327.977 315.848 328.508 318.061C328.816 319.18 328.714 320.274 328.727 321.266C328.74 322.272 328.587 323.231 328.258 324.047C327.603 325.69 326.466 326.781 325.436 327.375C324.402 327.992 323.483 328.187 322.88 328.255C322.27 328.326 321.956 328.3 321.956 328.3Z" fill="#263238"/>
</svg>
