<svg width="132" height="132" viewBox="0 0 132 132" fill="none" xmlns="http://www.w3.org/2000/svg">
<path d="M66 121C62.975 121 60.3845 119.922 58.2285 117.766C56.0725 115.61 54.9963 113.021 55 110H77C77 113.025 75.922 115.616 73.766 117.771C71.61 119.927 69.0213 121.004 66 121ZM44 104.5V93.5H88V104.5H44ZM45.375 88C39.05 84.2417 34.0303 79.2 30.316 72.875C26.6017 66.55 24.7463 59.675 24.75 52.25C24.75 40.7917 28.7613 31.0512 36.784 23.0285C44.8067 15.0058 54.5453 10.9963 66 11C77.4583 11 87.1988 15.0113 95.2215 23.034C103.244 31.0567 107.254 40.7953 107.25 52.25C107.25 59.675 105.395 66.55 101.684 72.875C97.9733 79.2 92.9537 84.2417 86.625 88H45.375ZM48.675 77H83.325C87.45 74.0667 90.6363 70.4458 92.884 66.1375C95.1317 61.8292 96.2537 57.2 96.25 52.25C96.25 43.8167 93.3167 36.6667 87.45 30.8C81.5833 24.9333 74.4333 22 66 22C57.5667 22 50.4167 24.9333 44.55 30.8C38.6833 36.6667 35.75 43.8167 35.75 52.25C35.75 57.2 36.8738 61.8292 39.1215 66.1375C41.3692 70.4458 44.5537 74.0667 48.675 77Z" fill="white"/>
</svg>
