<svg width="101" height="126" viewBox="0 0 101 126" fill="none" xmlns="http://www.w3.org/2000/svg">
<path d="M18.9375 0H82.0625C87.085 0 91.9019 1.99124 95.4533 5.53568C99.0048 9.08012 101 13.8874 101 18.9V107.1C101 112.113 99.0048 116.92 95.4533 120.464C91.9019 124.009 87.085 126 82.0625 126H18.9375C13.915 126 9.09813 124.009 5.54667 120.464C1.9952 116.92 0 112.113 0 107.1L0 18.9C0 13.8874 1.9952 9.08012 5.54667 5.53568C9.09813 1.99124 13.915 0 18.9375 0ZM18.9375 12.6C17.2633 12.6 15.6577 13.2637 14.4739 14.4452C13.2901 15.6267 12.625 17.2291 12.625 18.9V107.1C12.625 108.771 13.2901 110.373 14.4739 111.555C15.6577 112.736 17.2633 113.4 18.9375 113.4H82.0625C83.7367 113.4 85.3423 112.736 86.5261 111.555C87.7099 110.373 88.375 108.771 88.375 107.1V18.9C88.375 17.2291 87.7099 15.6267 86.5261 14.4452C85.3423 13.2637 83.7367 12.6 82.0625 12.6H18.9375ZM31.5625 18.9H69.4375C71.1117 18.9 72.7173 19.5637 73.9011 20.7452C75.0849 21.9267 75.75 23.5291 75.75 25.2C75.75 26.8709 75.0849 28.4733 73.9011 29.6548C72.7173 30.8363 71.1117 31.5 69.4375 31.5H31.5625C29.8883 31.5 28.2827 30.8363 27.0989 29.6548C25.9151 28.4733 25.25 26.8709 25.25 25.2C25.25 23.5291 25.9151 21.9267 27.0989 20.7452C28.2827 19.5637 29.8883 18.9 31.5625 18.9ZM31.5625 94.5H44.1875C45.8617 94.5 47.4673 95.1637 48.6511 96.3452C49.8349 97.5267 50.5 99.1291 50.5 100.8C50.5 102.471 49.8349 104.073 48.6511 105.255C47.4673 106.436 45.8617 107.1 44.1875 107.1H31.5625C29.8883 107.1 28.2827 106.436 27.0989 105.255C25.9151 104.073 25.25 102.471 25.25 100.8C25.25 99.1291 25.9151 97.5267 27.0989 96.3452C28.2827 95.1637 29.8883 94.5 31.5625 94.5ZM31.5625 69.3H69.4375C71.1117 69.3 72.7173 69.9638 73.9011 71.1452C75.0849 72.3267 75.75 73.9291 75.75 75.6C75.75 77.2709 75.0849 78.8733 73.9011 80.0548C72.7173 81.2363 71.1117 81.9 69.4375 81.9H31.5625C29.8883 81.9 28.2827 81.2363 27.0989 80.0548C25.9151 78.8733 25.25 77.2709 25.25 75.6C25.25 73.9291 25.9151 72.3267 27.0989 71.1452C28.2827 69.9638 29.8883 69.3 31.5625 69.3ZM31.5625 44.1H69.4375C71.1117 44.1 72.7173 44.7638 73.9011 45.9452C75.0849 47.1267 75.75 48.7291 75.75 50.4C75.75 52.0709 75.0849 53.6733 73.9011 54.8548C72.7173 56.0363 71.1117 56.7 69.4375 56.7H31.5625C29.8883 56.7 28.2827 56.0363 27.0989 54.8548C25.9151 53.6733 25.25 52.0709 25.25 50.4C25.25 48.7291 25.9151 47.1267 27.0989 45.9452C28.2827 44.7638 29.8883 44.1 31.5625 44.1Z" fill="white"/>
</svg>
